<mxfile host="app.diagrams.net" modified="2023-04-29T09:52:05.822Z" agent="Mozilla/5.0 (Macintosh; Intel Mac OS X 10_15_7) AppleWebKit/605.1.15 (KHTML, like Gecko) Version/16.2 Safari/605.1.15" etag="kcizypcsCj71inq-5Y7x" version="21.2.1" type="github">
  <diagram name="第 1 页" id="1Un_j06MCUsO6M0513EL">
    <mxGraphModel dx="451" dy="599" grid="1" gridSize="10" guides="1" tooltips="1" connect="1" arrows="1" fold="1" page="1" pageScale="1" pageWidth="827" pageHeight="1169" math="0" shadow="0">
      <root>
        <mxCell id="0" />
        <mxCell id="1" parent="0" />
        <mxCell id="xsLSFmgHNhUDvW_-SBU2-21" style="edgeStyle=orthogonalEdgeStyle;rounded=0;orthogonalLoop=1;jettySize=auto;html=1;exitX=1;exitY=0.5;exitDx=0;exitDy=0;" edge="1" parent="1" source="xsLSFmgHNhUDvW_-SBU2-1" target="xsLSFmgHNhUDvW_-SBU2-20">
          <mxGeometry relative="1" as="geometry" />
        </mxCell>
        <mxCell id="xsLSFmgHNhUDvW_-SBU2-1" value="" style="rounded=0;whiteSpace=wrap;html=1;fillColor=#f8cecc;strokeColor=#b85450;" vertex="1" parent="1">
          <mxGeometry x="141.25" y="180" width="298.75" height="60" as="geometry" />
        </mxCell>
        <mxCell id="xsLSFmgHNhUDvW_-SBU2-2" value="" style="line;strokeWidth=2;direction=south;html=1;" vertex="1" parent="1">
          <mxGeometry x="210" y="180" width="10" height="60" as="geometry" />
        </mxCell>
        <mxCell id="xsLSFmgHNhUDvW_-SBU2-3" value="" style="line;strokeWidth=2;direction=south;html=1;" vertex="1" parent="1">
          <mxGeometry x="290" y="180" width="10" height="60" as="geometry" />
        </mxCell>
        <mxCell id="xsLSFmgHNhUDvW_-SBU2-4" value="" style="line;strokeWidth=2;direction=south;html=1;" vertex="1" parent="1">
          <mxGeometry x="360" y="180" width="10" height="60" as="geometry" />
        </mxCell>
        <mxCell id="xsLSFmgHNhUDvW_-SBU2-8" value="&lt;font style=&quot;font-size: 20px;&quot;&gt;pod优先级队列&lt;/font&gt;" style="text;strokeColor=none;align=center;fillColor=none;html=1;verticalAlign=middle;whiteSpace=wrap;rounded=0;" vertex="1" parent="1">
          <mxGeometry x="210" y="240" width="142.5" height="70" as="geometry" />
        </mxCell>
        <mxCell id="xsLSFmgHNhUDvW_-SBU2-9" value="" style="shape=cylinder3;whiteSpace=wrap;html=1;boundedLbl=1;backgroundOutline=1;size=15;" vertex="1" parent="1">
          <mxGeometry x="145" y="310" width="60" height="80" as="geometry" />
        </mxCell>
        <mxCell id="xsLSFmgHNhUDvW_-SBU2-10" value="" style="shape=cylinder3;whiteSpace=wrap;html=1;boundedLbl=1;backgroundOutline=1;size=15;" vertex="1" parent="1">
          <mxGeometry x="305" y="310" width="60" height="80" as="geometry" />
        </mxCell>
        <mxCell id="xsLSFmgHNhUDvW_-SBU2-11" value="" style="shape=cylinder3;whiteSpace=wrap;html=1;boundedLbl=1;backgroundOutline=1;size=15;" vertex="1" parent="1">
          <mxGeometry x="225" y="310" width="60" height="80" as="geometry" />
        </mxCell>
        <mxCell id="xsLSFmgHNhUDvW_-SBU2-23" style="edgeStyle=orthogonalEdgeStyle;rounded=0;orthogonalLoop=1;jettySize=auto;html=1;exitX=1;exitY=0.5;exitDx=0;exitDy=0;exitPerimeter=0;entryX=0;entryY=0.5;entryDx=0;entryDy=0;" edge="1" parent="1" source="xsLSFmgHNhUDvW_-SBU2-12" target="xsLSFmgHNhUDvW_-SBU2-20">
          <mxGeometry relative="1" as="geometry">
            <Array as="points">
              <mxPoint x="480" y="350" />
              <mxPoint x="480" y="275" />
            </Array>
          </mxGeometry>
        </mxCell>
        <mxCell id="xsLSFmgHNhUDvW_-SBU2-12" value="" style="shape=cylinder3;whiteSpace=wrap;html=1;boundedLbl=1;backgroundOutline=1;size=15;" vertex="1" parent="1">
          <mxGeometry x="385" y="310" width="60" height="80" as="geometry" />
        </mxCell>
        <mxCell id="xsLSFmgHNhUDvW_-SBU2-13" value="&lt;span style=&quot;font-size: 20px;&quot;&gt;node列表&lt;/span&gt;" style="text;strokeColor=none;align=center;fillColor=none;html=1;verticalAlign=middle;whiteSpace=wrap;rounded=0;" vertex="1" parent="1">
          <mxGeometry x="205" y="390" width="142.5" height="70" as="geometry" />
        </mxCell>
        <mxCell id="xsLSFmgHNhUDvW_-SBU2-18" style="edgeStyle=orthogonalEdgeStyle;rounded=0;orthogonalLoop=1;jettySize=auto;html=1;entryX=0;entryY=0.5;entryDx=0;entryDy=0;entryPerimeter=0;" edge="1" parent="1" source="xsLSFmgHNhUDvW_-SBU2-14" target="xsLSFmgHNhUDvW_-SBU2-3">
          <mxGeometry relative="1" as="geometry" />
        </mxCell>
        <mxCell id="xsLSFmgHNhUDvW_-SBU2-14" value="" style="ellipse;shape=cloud;whiteSpace=wrap;html=1;fillColor=#dae8fc;strokeColor=#6c8ebf;" vertex="1" parent="1">
          <mxGeometry x="20" y="30" width="120" height="80" as="geometry" />
        </mxCell>
        <mxCell id="xsLSFmgHNhUDvW_-SBU2-16" value="&lt;span style=&quot;font-size: 20px;&quot;&gt;etcd&lt;/span&gt;" style="text;strokeColor=none;align=center;fillColor=none;html=1;verticalAlign=middle;whiteSpace=wrap;rounded=0;" vertex="1" parent="1">
          <mxGeometry x="8.75" y="100" width="142.5" height="70" as="geometry" />
        </mxCell>
        <mxCell id="xsLSFmgHNhUDvW_-SBU2-19" value="&lt;span style=&quot;font-size: 20px;&quot;&gt;pod入队&lt;/span&gt;" style="text;strokeColor=none;align=center;fillColor=none;html=1;verticalAlign=middle;whiteSpace=wrap;rounded=0;" vertex="1" parent="1">
          <mxGeometry x="150" y="60" width="142.5" height="70" as="geometry" />
        </mxCell>
        <mxCell id="xsLSFmgHNhUDvW_-SBU2-27" style="edgeStyle=orthogonalEdgeStyle;rounded=0;orthogonalLoop=1;jettySize=auto;html=1;" edge="1" parent="1" source="xsLSFmgHNhUDvW_-SBU2-20" target="xsLSFmgHNhUDvW_-SBU2-25">
          <mxGeometry relative="1" as="geometry">
            <Array as="points">
              <mxPoint x="590" y="500" />
            </Array>
          </mxGeometry>
        </mxCell>
        <mxCell id="xsLSFmgHNhUDvW_-SBU2-20" value="预先过滤，节点打分" style="rhombus;whiteSpace=wrap;html=1;fillColor=#fff2cc;strokeColor=#d6b656;" vertex="1" parent="1">
          <mxGeometry x="520" y="215" width="140" height="120" as="geometry" />
        </mxCell>
        <mxCell id="xsLSFmgHNhUDvW_-SBU2-24" value="" style="rounded=0;whiteSpace=wrap;html=1;fillColor=none;strokeColor=#9673a6;" vertex="1" parent="1">
          <mxGeometry x="100" y="150" width="590" height="290" as="geometry" />
        </mxCell>
        <mxCell id="xsLSFmgHNhUDvW_-SBU2-25" value="" style="shape=cylinder3;whiteSpace=wrap;html=1;boundedLbl=1;backgroundOutline=1;size=15;fillColor=#1ba1e2;fontColor=#ffffff;strokeColor=#006EAF;" vertex="1" parent="1">
          <mxGeometry x="285" y="490" width="60" height="80" as="geometry" />
        </mxCell>
        <mxCell id="xsLSFmgHNhUDvW_-SBU2-26" value="&lt;span style=&quot;font-size: 20px;&quot;&gt;node&lt;/span&gt;" style="text;strokeColor=none;align=center;fillColor=none;html=1;verticalAlign=middle;whiteSpace=wrap;rounded=0;" vertex="1" parent="1">
          <mxGeometry x="242.5" y="560" width="142.5" height="70" as="geometry" />
        </mxCell>
        <mxCell id="xsLSFmgHNhUDvW_-SBU2-28" value="&lt;span style=&quot;font-size: 20px;&quot;&gt;绑定节点&lt;/span&gt;" style="text;strokeColor=none;align=center;fillColor=none;html=1;verticalAlign=middle;whiteSpace=wrap;rounded=0;" vertex="1" parent="1">
          <mxGeometry x="430" y="495" width="142.5" height="70" as="geometry" />
        </mxCell>
      </root>
    </mxGraphModel>
  </diagram>
</mxfile>
